<svg width="164" height="73" viewBox="0 0 164 73" fill="none" xmlns="http://www.w3.org/2000/svg">
<path d="M3.83984 43.7852C8.19922 46.5977 12.6289 48.4492 17.1289 49.3398C18.6523 49.6445 20.1992 49.7969 21.7695 49.7969C23.3398 49.7969 24.957 49.6562 26.6211 49.375C28.3086 49.0703 29.7969 48.5781 31.0859 47.8984C33.9922 46.3516 35.4453 43.9727 35.4453 40.7617C35.4453 37.457 33.0078 35.1484 28.1328 33.8359C26.7031 33.4609 25.1797 33.1211 23.5625 32.8164L18.5352 31.9375C12.1367 30.8359 7.67188 29.2188 5.14062 27.0859C2.79688 25.1406 1.625 22.5156 1.625 19.2109C1.625 14.7109 3.78125 11.0664 8.09375 8.27734C11.9375 5.76953 16.4727 4.51562 21.6992 4.51562C26.7148 4.51562 31.2266 5.33594 35.2344 6.97656C36.6641 7.53906 38.1523 8.24219 39.6992 9.08594L37.3086 14.8164C33.9102 12.7773 29.9023 11.4531 25.2852 10.8438C23.832 10.6328 22.4258 10.5273 21.0664 10.5273C17.9492 10.5273 15.1953 11.125 12.8047 12.3203C10.0156 13.7266 8.62109 15.6719 8.62109 18.1562C8.62109 20.7812 10.3906 22.7031 13.9297 23.9219C15.5234 24.4844 17.3281 24.9414 19.3438 25.293L25.6016 26.3828C30.875 27.3672 34.5312 28.4805 36.5703 29.7227C38.6094 30.9648 40.1094 32.3594 41.0703 33.9062C42.0547 35.4297 42.5469 37.4688 42.5469 40.0234C42.5469 42.5547 41.9492 44.8281 40.7539 46.8438C39.5586 48.8594 37.9648 50.5234 35.9727 51.8359C32.082 54.4375 27.125 55.7383 21.1016 55.7383C15.4766 55.7383 10.1914 54.5195 5.24609 52.082C3.62891 51.2852 2.12891 50.3711 0.746094 49.3398L3.83984 43.7852ZM53.1289 25.2578H49.3672V20.8984L58.0156 14.3945H59.8086V19.8438H69.8633V25.2578H59.8086V39.4609C59.8086 43.4453 60.3125 46.1641 61.3203 47.6172C62.3281 49.0469 64.2969 49.9258 67.2266 50.2539L66.207 55C59.1758 55.8906 55.0156 53.1133 53.7266 46.668C53.3281 44.7461 53.1289 42.6719 53.1289 40.4453V25.2578ZM74.5039 65.5117C75.6992 65.957 76.918 66.1797 78.1602 66.1797C79.4258 66.1797 80.4453 65.9219 81.2188 65.4062C81.9922 64.9141 82.6953 64.2344 83.3281 63.3672C84.4531 61.8906 85.6016 59.6406 86.7734 56.6172L87.125 55.7031L73.1328 19.8438H80.0586L87.4414 38.9336C87.8398 39.9648 88.2031 41.0078 88.5312 42.0625C88.5312 42.0625 88.8242 43.0234 89.4102 44.9453C89.6914 45.9531 89.9492 46.9258 90.1836 47.8633H90.5352C90.5352 47.8633 90.8047 47.0078 91.3438 45.2969C91.9531 43.4453 92.6797 41.4297 93.5234 39.25L101.082 19.8438H107.48L93.5938 55C90.2188 63.5781 86.5391 68.9102 82.5547 70.9961C81.125 71.7461 79.7539 72.1211 78.4414 72.1211C77.1523 72.1211 76.168 72.0156 75.4883 71.8047C74.832 71.5938 74.1289 71.1953 73.3789 70.6094L74.5039 65.5117ZM115.391 0.121094H122.07V42.9766C122.07 45.3672 122.234 46.9609 122.562 47.7578C123.219 49.2812 124.344 50.2539 125.938 50.6758L124.953 55C121.32 55.4688 118.73 54.5078 117.184 52.1172C115.988 50.2422 115.391 47.3594 115.391 43.4688V0.121094ZM159.969 22.9375C161.211 24.1797 162.184 25.75 162.887 27.6484C163.613 29.5234 163.977 31.5039 163.977 33.5898C163.977 35.6758 163.742 38.125 163.273 40.9375H138.805C139.32 43.7734 140.469 46.0117 142.25 47.6523C144.031 49.2695 146.551 50.0781 149.809 50.0781C154.168 50.0781 158.164 49.2812 161.797 47.6875L162.922 52.7148C160.508 54.1211 157.062 55.0469 152.586 55.4922C151.344 55.6328 149.727 55.7031 147.734 55.7031C145.742 55.7031 143.656 55.3047 141.477 54.5078C139.297 53.7109 137.492 52.5391 136.062 50.9922C133.227 47.9219 131.809 43.4219 131.809 37.4922C131.809 32.2891 133.508 27.9297 136.906 24.4141C140.352 20.8984 144.652 19.1406 149.809 19.1406C154.051 19.1406 157.438 20.4062 159.969 22.9375ZM157.613 35.7695L157.754 33.8711C157.754 29.582 156.148 26.7344 152.938 25.3281C151.859 24.8594 150.57 24.625 149.07 24.625C147.57 24.625 146.188 24.918 144.922 25.5039C143.68 26.0898 142.602 26.8867 141.688 27.8945C139.812 29.957 138.758 32.582 138.523 35.7695H157.613Z" fill="black"/>
</svg>
