<svg width="33" height="33" viewBox="0 0 33 33" fill="none" xmlns="http://www.w3.org/2000/svg">
<path d="M32.7639 8.13115C32.5799 7.91967 32.3137 7.79884 32.0343 7.79884H7.52037L6.82266 2.43208C6.59133 1.02248 5.38755 0 3.96004 0H0.967804C0.433422 0 0.00100708 0.432416 0.00100708 0.966797C0.00100708 1.50118 0.433422 1.9336 0.967804 1.9336H3.96004C4.4359 1.9336 4.83713 2.27442 4.90982 2.71438L5.7095 8.85528C5.71232 8.8808 5.71516 8.90529 5.71987 8.92986L7.52224 22.6796C7.57108 22.9777 7.68594 23.2472 7.81666 23.505C6.68513 23.9006 5.86618 24.9674 5.86618 26.2324C5.86618 27.8318 7.16722 29.1199 8.76656 29.1199H9.91144C9.80309 29.4239 9.73337 29.759 9.73337 30.0997C9.73337 31.6989 11.0344 33 12.6338 33C14.2331 33 15.5341 31.6989 15.5341 30.0997C15.5341 29.759 15.4644 29.4239 15.3561 29.1199H21.5775C21.4691 29.4239 21.3993 29.759 21.3993 30.0997C21.3993 31.6989 22.7004 33 24.2998 33C25.899 33 27.2001 31.6989 27.2001 30.0997C27.2001 29.759 27.1305 29.4367 27.0221 29.1328H30.1005C30.6349 29.1328 31.0674 28.7005 31.0674 28.1661C31.0674 27.6316 30.6349 27.1992 30.1005 27.1992H8.76656C8.23315 27.1992 7.79977 26.7658 7.79977 26.2324C7.79977 25.6989 8.23321 25.2655 8.85442 25.2619L14.7287 24.7275L28.7004 23.4632C30.0147 23.3442 31.0835 22.352 31.3035 21.0265L32.9915 8.89968C33.0303 8.62209 32.9471 8.34262 32.7639 8.13115ZM10.4717 23.1724C9.9572 23.2291 9.51157 22.8646 9.4341 22.3964L8.2844 13.5996H11.7466L12.5451 22.984L10.4717 23.1724ZM18.499 22.4486L14.9066 22.7693H14.9063L14.8499 22.7746L14.4702 22.8091L13.6867 13.5996H18.499V22.4486ZM24.373 21.9147L20.4328 22.273V13.5996H25.1692L24.373 21.9147ZM29.3924 20.7337C29.3198 21.1671 28.9638 21.4975 28.5258 21.5373L26.3322 21.7366L27.1112 13.5996H30.3819L29.3924 20.7337Z" fill="white"/>
</svg>
