<svg width="94" height="78" viewBox="0 0 94 78" fill="none" xmlns="http://www.w3.org/2000/svg">
<path d="M0.472534 0.942078H93.7378V77.25L47.6738 38.8591L0.472534 0.942078Z" fill="black"/>
<path d="M47.7793 23.4912V28H45.1426V15.2031H50.1348C51.0957 15.2031 51.9395 15.3789 52.666 15.7305C53.3984 16.082 53.9609 16.583 54.3535 17.2334C54.7461 17.8779 54.9424 18.6133 54.9424 19.4395C54.9424 20.6934 54.5117 21.6836 53.6504 22.4102C52.7949 23.1309 51.6084 23.4912 50.0908 23.4912H47.7793ZM47.7793 21.3555H50.1348C50.832 21.3555 51.3623 21.1914 51.7256 20.8633C52.0947 20.5352 52.2793 20.0664 52.2793 19.457C52.2793 18.8301 52.0947 18.3232 51.7256 17.9365C51.3564 17.5498 50.8467 17.3506 50.1963 17.3389H47.7793V21.3555ZM61.9385 20.8721C61.5928 20.8252 61.2881 20.8018 61.0244 20.8018C60.0635 20.8018 59.4336 21.127 59.1348 21.7773V28H56.5947V18.4902H58.9941L59.0645 19.624C59.5742 18.751 60.2803 18.3145 61.1826 18.3145C61.4639 18.3145 61.7275 18.3525 61.9736 18.4287L61.9385 20.8721ZM65.8496 28H63.3008V18.4902H65.8496V28ZM63.1514 16.0293C63.1514 15.6484 63.2773 15.335 63.5293 15.0889C63.7871 14.8428 64.1357 14.7197 64.5752 14.7197C65.0088 14.7197 65.3545 14.8428 65.6123 15.0889C65.8701 15.335 65.999 15.6484 65.999 16.0293C65.999 16.416 65.8672 16.7324 65.6035 16.9785C65.3457 17.2246 65.0029 17.3477 64.5752 17.3477C64.1475 17.3477 63.8018 17.2246 63.5381 16.9785C63.2803 16.7324 63.1514 16.416 63.1514 16.0293ZM71.9053 26.1279C72.374 26.1279 72.7549 25.999 73.0479 25.7412C73.3408 25.4834 73.4932 25.1406 73.5049 24.7129H75.8867C75.8809 25.3574 75.7051 25.9492 75.3594 26.4883C75.0137 27.0215 74.5391 27.4375 73.9355 27.7363C73.3379 28.0293 72.6758 28.1758 71.9492 28.1758C70.5898 28.1758 69.5176 27.7451 68.7324 26.8838C67.9473 26.0166 67.5547 24.8213 67.5547 23.2979V23.1309C67.5547 21.666 67.9443 20.4971 68.7236 19.624C69.5029 18.751 70.5723 18.3145 71.9316 18.3145C73.1211 18.3145 74.0732 18.6543 74.7881 19.334C75.5088 20.0078 75.875 20.9072 75.8867 22.0322H73.5049C73.4932 21.54 73.3408 21.1416 73.0479 20.8369C72.7549 20.5264 72.3682 20.3711 71.8877 20.3711C71.2959 20.3711 70.8477 20.5879 70.543 21.0215C70.2441 21.4492 70.0947 22.1465 70.0947 23.1133V23.377C70.0947 24.3555 70.2441 25.0586 70.543 25.4863C70.8418 25.9141 71.2959 26.1279 71.9053 26.1279ZM81.7139 28.1758C80.3193 28.1758 79.1826 27.748 78.3037 26.8926C77.4307 26.0371 76.9941 24.8975 76.9941 23.4736V23.2275C76.9941 22.2725 77.1787 21.4199 77.5479 20.6699C77.917 19.9141 78.4385 19.334 79.1123 18.9297C79.792 18.5195 80.5654 18.3145 81.4326 18.3145C82.7334 18.3145 83.7559 18.7246 84.5 19.5449C85.25 20.3652 85.625 21.5283 85.625 23.0342V24.0713H79.5693C79.6514 24.6924 79.8975 25.1904 80.3076 25.5654C80.7236 25.9404 81.248 26.1279 81.8809 26.1279C82.8594 26.1279 83.624 25.7734 84.1748 25.0645L85.4229 26.4619C85.042 27.001 84.5264 27.4229 83.876 27.7275C83.2256 28.0264 82.5049 28.1758 81.7139 28.1758ZM81.4238 20.3711C80.9199 20.3711 80.5098 20.541 80.1934 20.8809C79.8828 21.2207 79.6836 21.707 79.5957 22.3398H83.1289V22.1377C83.1172 21.5752 82.9648 21.1416 82.6719 20.8369C82.3789 20.5264 81.9629 20.3711 81.4238 20.3711Z" fill="#FFFAFA"/>
</svg>
