<svg width="198" height="72" viewBox="0 0 198 72" fill="none" xmlns="http://www.w3.org/2000/svg">
<path d="M3.83984 43.7852C8.19922 46.5977 12.6289 48.4492 17.1289 49.3398C18.6523 49.6445 20.1992 49.7969 21.7695 49.7969C23.3398 49.7969 24.957 49.6562 26.6211 49.375C28.3086 49.0703 29.7969 48.5781 31.0859 47.8984C33.9922 46.3516 35.4453 43.9727 35.4453 40.7617C35.4453 37.457 33.0078 35.1484 28.1328 33.8359C26.7031 33.4609 25.1797 33.1211 23.5625 32.8164L18.5352 31.9375C12.1367 30.8359 7.67188 29.2188 5.14062 27.0859C2.79688 25.1406 1.625 22.5156 1.625 19.2109C1.625 14.7109 3.78125 11.0664 8.09375 8.27734C11.9375 5.76953 16.4727 4.51562 21.6992 4.51562C26.7148 4.51562 31.2266 5.33594 35.2344 6.97656C36.6641 7.53906 38.1523 8.24219 39.6992 9.08594L37.3086 14.8164C33.9102 12.7773 29.9023 11.4531 25.2852 10.8438C23.832 10.6328 22.4258 10.5273 21.0664 10.5273C17.9492 10.5273 15.1953 11.125 12.8047 12.3203C10.0156 13.7266 8.62109 15.6719 8.62109 18.1562C8.62109 20.7812 10.3906 22.7031 13.9297 23.9219C15.5234 24.4844 17.3281 24.9414 19.3438 25.293L25.6016 26.3828C30.875 27.3672 34.5312 28.4805 36.5703 29.7227C38.6094 30.9648 40.1094 32.3594 41.0703 33.9062C42.0547 35.4297 42.5469 37.4688 42.5469 40.0234C42.5469 42.5547 41.9492 44.8281 40.7539 46.8438C39.5586 48.8594 37.9648 50.5234 35.9727 51.8359C32.082 54.4375 27.125 55.7383 21.1016 55.7383C15.4766 55.7383 10.1914 54.5195 5.24609 52.082C3.62891 51.2852 2.12891 50.3711 0.746094 49.3398L3.83984 43.7852ZM60.4766 22.9023C63.9453 20.3945 67.9766 19.1406 72.5703 19.1406C83.2578 19.1406 88.6016 25.0117 88.6016 36.7539V55H81.957L81.9219 37.1758C81.9219 33.1211 81.2188 30.1094 79.8125 28.1406C78.2422 25.8906 75.6758 24.7656 72.1133 24.7656C68.293 24.7656 65.0938 25.7031 62.5156 27.5781C61.6719 28.1641 60.9922 28.8438 60.4766 29.6172V55H53.7969V0.0859375L60.4766 0.121094V22.9023ZM97.707 37.7383C97.707 35.0664 98.2344 32.5938 99.2891 30.3203C100.344 28.0469 101.773 26.0781 103.578 24.4141C107.398 20.8984 111.992 19.1406 117.359 19.1406C122.773 19.1406 127.285 20.8164 130.895 24.168C134.551 27.5664 136.379 31.9375 136.379 37.2812C136.379 42.5078 134.422 46.9023 130.508 50.4648C126.711 53.957 122.117 55.7031 116.727 55.7031C111.242 55.7031 106.719 54.0391 103.156 50.7109C99.5234 47.3359 97.707 43.0117 97.707 37.7383ZM104.387 37.3516C104.387 39.1797 104.715 40.8789 105.371 42.4492C106.027 43.9961 106.93 45.3438 108.078 46.4922C110.516 48.8828 113.609 50.0781 117.359 50.0781C120.852 50.0781 123.781 48.8828 126.148 46.4922C128.516 44.1484 129.699 41.207 129.699 37.668C129.699 33.9648 128.469 30.8828 126.008 28.4219C123.57 25.9844 120.477 24.7656 116.727 24.7656C113.234 24.7656 110.305 25.9727 107.938 28.3867C105.57 30.7773 104.387 33.7656 104.387 37.3516ZM160.883 55.7031C158.023 55.7031 155.352 55.4453 152.867 54.9297V71.418H146.188V19.8438H151.285L152.27 23.2188C155.598 20.5 159.594 19.1406 164.258 19.1406C169.32 19.1406 173.387 20.7344 176.457 23.9219C179.48 27.0859 180.992 31.2344 180.992 36.3672C180.992 42.1094 179.07 46.7852 175.227 50.3945C171.477 53.9336 166.695 55.7031 160.883 55.7031ZM152.867 48.918C156.172 49.6914 158.938 50.0781 161.164 50.0781C163.391 50.0781 165.301 49.7734 166.895 49.1641C168.488 48.5312 169.836 47.6406 170.938 46.4922C173.188 44.1484 174.312 40.9141 174.312 36.7891C174.312 33.3203 173.398 30.4844 171.57 28.2812C169.625 25.9375 167.035 24.7656 163.801 24.7656C160.098 24.7656 157.062 25.6797 154.695 27.5078C153.945 28.1172 153.336 28.8086 152.867 29.582V48.918ZM190.836 5.21875H197.34V55H190.836V5.21875Z" fill="black"/>
</svg>
