<svg width="132" height="48" viewBox="0 0 132 48" fill="none" xmlns="http://www.w3.org/2000/svg">
<path d="M2.22656 29.5234C5.13281 31.3984 8.08594 32.6328 11.0859 33.2266C12.1016 33.4297 13.1328 33.5312 14.1797 33.5312C15.2266 33.5312 16.3047 33.4375 17.4141 33.25C18.5391 33.0469 19.5312 32.7188 20.3906 32.2656C22.3281 31.2344 23.2969 29.6484 23.2969 27.5078C23.2969 25.3047 21.6719 23.7656 18.4219 22.8906C17.4688 22.6406 16.4531 22.4141 15.375 22.2109L12.0234 21.625C7.75781 20.8906 4.78125 19.8125 3.09375 18.3906C1.53125 17.0938 0.75 15.3438 0.75 13.1406C0.75 10.1406 2.1875 7.71094 5.0625 5.85156C7.625 4.17969 10.6484 3.34375 14.1328 3.34375C17.4766 3.34375 20.4844 3.89062 23.1562 4.98438C24.1094 5.35938 25.1016 5.82812 26.1328 6.39062L24.5391 10.2109C22.2734 8.85156 19.6016 7.96875 16.5234 7.5625C15.5547 7.42188 14.6172 7.35156 13.7109 7.35156C11.6328 7.35156 9.79688 7.75 8.20312 8.54688C6.34375 9.48438 5.41406 10.7812 5.41406 12.4375C5.41406 14.1875 6.59375 15.4688 8.95312 16.2812C10.0156 16.6562 11.2188 16.9609 12.5625 17.1953L16.7344 17.9219C20.25 18.5781 22.6875 19.3203 24.0469 20.1484C25.4062 20.9766 26.4062 21.9062 27.0469 22.9375C27.7031 23.9531 28.0312 25.3125 28.0312 27.0156C28.0312 28.7031 27.6328 30.2188 26.8359 31.5625C26.0391 32.9062 24.9766 34.0156 23.6484 34.8906C21.0547 36.625 17.75 37.4922 13.7344 37.4922C9.98438 37.4922 6.46094 36.6797 3.16406 35.0547C2.08594 34.5234 1.08594 33.9141 0.164062 33.2266L2.22656 29.5234ZM39.9844 15.6016C42.2969 13.9297 44.9844 13.0938 48.0469 13.0938C55.1719 13.0938 58.7344 17.0078 58.7344 24.8359V37H54.3047L54.2812 25.1172C54.2812 22.4141 53.8125 20.4062 52.875 19.0938C51.8281 17.5938 50.1172 16.8438 47.7422 16.8438C45.1953 16.8438 43.0625 17.4688 41.3438 18.7188C40.7812 19.1094 40.3281 19.5625 39.9844 20.0781V37H35.5312V0.390625L39.9844 0.414062V15.6016ZM64.8047 25.4922C64.8047 23.7109 65.1562 22.0625 65.8594 20.5469C66.5625 19.0312 67.5156 17.7188 68.7188 16.6094C71.2656 14.2656 74.3281 13.0938 77.9062 13.0938C81.5156 13.0938 84.5234 14.2109 86.9297 16.4453C89.3672 18.7109 90.5859 21.625 90.5859 25.1875C90.5859 28.6719 89.2812 31.6016 86.6719 33.9766C84.1406 36.3047 81.0781 37.4688 77.4844 37.4688C73.8281 37.4688 70.8125 36.3594 68.4375 34.1406C66.0156 31.8906 64.8047 29.0078 64.8047 25.4922ZM69.2578 25.2344C69.2578 26.4531 69.4766 27.5859 69.9141 28.6328C70.3516 29.6641 70.9531 30.5625 71.7188 31.3281C73.3438 32.9219 75.4062 33.7188 77.9062 33.7188C80.2344 33.7188 82.1875 32.9219 83.7656 31.3281C85.3438 29.7656 86.1328 27.8047 86.1328 25.4453C86.1328 22.9766 85.3125 20.9219 83.6719 19.2812C82.0469 17.6562 79.9844 16.8438 77.4844 16.8438C75.1562 16.8438 73.2031 17.6484 71.625 19.2578C70.0469 20.8516 69.2578 22.8438 69.2578 25.2344ZM106.922 37.4688C105.016 37.4688 103.234 37.2969 101.578 36.9531V47.9453H97.125V13.5625H100.523L101.18 15.8125C103.398 14 106.062 13.0938 109.172 13.0938C112.547 13.0938 115.258 14.1562 117.305 16.2812C119.32 18.3906 120.328 21.1562 120.328 24.5781C120.328 28.4062 119.047 31.5234 116.484 33.9297C113.984 36.2891 110.797 37.4688 106.922 37.4688ZM101.578 32.9453C103.781 33.4609 105.625 33.7188 107.109 33.7188C108.594 33.7188 109.867 33.5156 110.93 33.1094C111.992 32.6875 112.891 32.0938 113.625 31.3281C115.125 29.7656 115.875 27.6094 115.875 24.8594C115.875 22.5469 115.266 20.6562 114.047 19.1875C112.75 17.625 111.023 16.8438 108.867 16.8438C106.398 16.8438 104.375 17.4531 102.797 18.6719C102.297 19.0781 101.891 19.5391 101.578 20.0547V32.9453ZM126.891 3.8125H131.227V37H126.891V3.8125Z" fill="white"/>
</svg>
